<?xml version="1.0" encoding="UTF-8"?>
<svg id="Capa_2" data-name="Capa 2" xmlns="http://www.w3.org/2000/svg" viewBox="0 0 521.16 354.19">
  <g id="Capa_1-2" data-name="Capa 1">
    <g id="xbtn0">
      <g>
        <path d="M227.97,71.19c0-32.87-26.65-59.51-59.51-59.51-15.81,0-30.17,6.18-40.83,16.24l15.02,15.92c6.74-6.36,15.82-10.27,25.81-10.27,20.78,0,37.62,16.85,37.62,37.62s-16.84,37.62-37.62,37.62c-2.17,0-4.29-.19-6.35-.54l-3.69,21.57c3.27.56,6.62.86,10.05.86,32.87,0,59.51-26.65,59.51-59.51Z" fill="#a4a8ae"/>
        <g id="xgreen0">
          <path d="M159.62,107.76c-16.51-3.98-28.79-18.84-28.79-36.57,0-9.87,3.81-18.85,10.02-25.56l-15.04-15.94c-10.44,10.72-16.87,25.36-16.87,41.5,0,28.57,20.13,52.42,46.98,58.18l3.7-21.61Z" fill="#a4a8ae"/>
        </g>
      </g>
      <path id="xcolor0" d="M168.45,93.52c-2.67,0-4.85-2.18-4.85-4.85v-12.13c0-.28-.22-.5-.5-.5h-12.13c-2.67,0-4.85-2.18-4.85-4.85s2.18-4.85,4.85-4.85h12.13c.28,0,.5-.22.5-.5v-12.13c0-2.67,2.18-4.85,4.85-4.85s4.85,2.18,4.85,4.85v12.13c0,.28.22.5.5.5h12.13c2.67,0,4.85,2.18,4.85,4.85s-2.18,4.85-4.85,4.85h-12.13c-.28,0-.5.22-.5.5v12.13c0,2.67-2.18,4.85-4.85,4.85ZM150.97,68.01c-1.75,0-3.17,1.42-3.17,3.18s1.42,3.18,3.17,3.18h13.47c.46,0,.84.38.84.84v13.47c0,1.75,1.42,3.18,3.17,3.18s3.17-1.42,3.17-3.18v-13.47c0-.46.38-.84.84-.84h13.47c1.75,0,3.17-1.42,3.17-3.18s-1.42-3.18-3.17-3.18h-13.47c-.46,0-.84-.38-.84-.84v-13.47c0-1.75-1.42-3.18-3.17-3.18s-3.17,1.42-3.17,3.18v13.47c0,.46-.38.84-.84.84h-13.47Z" fill="#a4a8ae"/>
    </g>
    <g id="xbtn1">
      <g>
        <path d="M277.19,101.59c23.24,23.24,60.92,23.24,84.17,0,11.18-11.18,16.97-25.7,17.39-40.35l-21.88-.64c-.27,9.26-3.93,18.44-10.99,25.51-14.69,14.69-38.52,14.69-53.21,0-14.69-14.69-14.69-38.52,0-53.21,1.53-1.53,3.17-2.89,4.88-4.11l-12.64-17.87c-2.7,1.92-5.29,4.07-7.71,6.49-23.24,23.24-23.24,60.92,0,84.17Z" fill="#a4a8ae"/>
        <g id="xgreen1">
          <path d="M299.67,27.4c14.49-8.87,33.68-7.04,46.22,5.5,6.98,6.98,10.64,16.02,10.99,25.16l21.91.64c-.2-14.96-6-29.86-17.41-41.28-20.2-20.2-51.3-22.83-74.36-7.92l12.66,17.9Z" fill="#a4a8ae"/>
        </g>
      </g>
      <path id="xcolor1" d="M319.28,81.84c-2.67,0-4.85-2.18-4.85-4.85v-12.13c0-.28-.22-.5-.5-.5h-12.13c-2.67,0-4.85-2.18-4.85-4.85s2.18-4.85,4.85-4.85h12.13c.28,0,.5-.22.5-.5v-12.13c0-2.67,2.18-4.85,4.85-4.85s4.85,2.18,4.85,4.85v12.13c0,.28.22.5.5.5h12.13c2.67,0,4.85,2.18,4.85,4.85s-2.18,4.85-4.85,4.85h-12.13c-.28,0-.5.22-.5.5v12.13c0,2.67-2.18,4.85-4.85,4.85ZM301.8,56.33c-1.75,0-3.17,1.42-3.17,3.18s1.42,3.18,3.17,3.18h13.47c.46,0,.84.38.84.84v13.47c0,1.75,1.42,3.18,3.17,3.18s3.17-1.42,3.17-3.18v-13.47c0-.46.38-.84.84-.84h13.47c1.75,0,3.17-1.42,3.17-3.18s-1.42-3.18-3.17-3.18h-13.47c-.46,0-.84-.38-.84-.84v-13.47c0-1.75-1.42-3.18-3.17-3.18s-3.17,1.42-3.17,3.18v13.47c0,.46-.38.84-.84.84h-13.47Z" fill="#a4a8ae"/>
    </g>
    <g id="xbtn2">
      <g>
        <path d="M461.65,53.17c-32.87,0-59.51,26.65-59.51,59.51,0,15.81,6.18,30.17,16.24,40.83l15.92-15.02c-6.36-6.74-10.27-15.82-10.27-25.81,0-20.78,16.85-37.62,37.62-37.62s37.62,16.84,37.62,37.62c0,2.17-.19,4.29-.54,6.35l21.57,3.69c.56-3.27.86-6.62.86-10.05,0-32.87-26.65-59.51-59.51-59.51Z" fill="#a4a8ae"/>
        <path id="xgreen2" d="M498.22,121.52c-3.98,16.51-18.84,28.79-36.57,28.79-9.87,0-18.85-3.81-25.56-10.02l-15.94,15.04c10.72,10.44,25.36,16.87,41.5,16.87,28.57,0,52.42-20.13,58.18-46.98l-21.61-3.7Z" fill="#a4a8ae"/>
      </g>
      <path id="xcolor2" d="M483.98,112.69c0,2.67-2.18,4.85-4.85,4.85h-12.13c-.28,0-.5.22-.5.5v12.13c0,2.67-2.18,4.85-4.85,4.85s-4.85-2.18-4.85-4.85v-12.13c0-.28-.22-.5-.5-.5h-12.13c-2.67,0-4.85-2.18-4.85-4.85s2.18-4.85,4.85-4.85h12.13c.28,0,.5-.22.5-.5v-12.13c0-2.67,2.18-4.85,4.85-4.85s4.85,2.18,4.85,4.85v12.13c0,.28.22.5.5.5h12.13c2.67,0,4.85,2.18,4.85,4.85ZM458.47,130.17c0,1.75,1.42,3.17,3.18,3.17s3.18-1.42,3.18-3.17v-13.47c0-.46.38-.84.84-.84h13.47c1.75,0,3.18-1.42,3.18-3.17s-1.42-3.17-3.18-3.17h-13.47c-.46,0-.84-.38-.84-.84v-13.47c0-1.75-1.42-3.17-3.18-3.17s-3.18,1.42-3.18,3.17v13.47c0,.46-.38.84-.84.84h-13.47c-1.75,0-3.18,1.42-3.18,3.17s1.42,3.17,3.18,3.17h13.47c.46,0,.84.38.84.84v13.47Z" fill="#a4a8ae"/>
    </g>
    <g>
      <g>
        <path d="M48.22,228.34h33.73v8.79h-23.93v9.08h21.05v8.79h-21.05v9.37h24.22v8.79h-34.02v-44.69h0v-.14Z" fill="#809e30"/>
        <path d="M85.85,250.83h0c0-12.83,9.66-23.21,23.35-23.21s13.55,2.88,17.59,6.92l-6.2,7.21c-3.46-3.17-6.92-5.05-11.39-5.05-7.5,0-12.97,6.2-12.97,13.98h0c0,7.78,5.33,14.27,12.97,14.27s8.22-2.02,11.68-5.19l6.2,6.34c-4.61,4.9-9.8,7.93-18.31,7.93-13.12,0-22.92-10.09-22.92-22.92h0v-.29Z" fill="#809e30"/>
        <path d="M128.52,250.83h0c0-12.83,10.09-23.21,23.93-23.21s23.79,10.24,23.79,22.92h0c0,12.83-10.09,23.21-23.93,23.21s-23.79-10.24-23.79-22.92h0ZM165.85,250.83h0c0-7.78-5.62-14.27-13.55-14.27s-13.41,6.2-13.41,13.98h0c0,7.78,5.62,14.27,13.55,14.27s13.41-6.2,13.41-13.98Z" fill="#809e30"/>
      </g>
      <g>
        <path d="M191.37,228.34h9.8v35.75h22.34v8.94h-32.15v-44.69Z" fill="#4d5151"/>
        <path d="M227.84,228.34h33.73v8.79h-23.93v9.08h21.05v8.79h-21.05v9.37h24.22v8.79h-34.02v-44.69h0v-.14Z" fill="#4d5151"/>
        <path d="M282.77,228.05h9.08l19.17,45.12h-10.24l-4.04-10.09h-18.88l-4.04,10.09h-10.09l19.17-45.12h-.14ZM293.15,254.29l-5.91-14.56-5.91,14.56h11.82Z" fill="#4d5151"/>
        <path d="M311.02,266.54l5.77-6.92c4.04,3.32,8.22,5.48,13.41,5.48s6.49-1.59,6.49-4.18h0c0-2.59-1.59-3.89-8.94-5.77-8.94-2.31-14.85-4.76-14.85-13.7h0c0-8.22,6.49-13.55,15.71-13.55s12.11,2.02,16.58,5.62l-5.19,7.35c-4.04-2.74-7.93-4.32-11.68-4.32s-5.77,1.73-5.77,3.89h0c0,3.03,1.87,4.04,9.66,6.05,9.08,2.31,14.13,5.62,14.13,13.41h0c0,8.94-6.78,13.98-16.43,13.98s-13.55-2.31-19.03-7.21h0l.14-.14Z" fill="#4d5151"/>
        <path d="M352.25,228.34h9.8v44.69h-9.8v-44.69Z" fill="#4d5151"/>
        <path d="M370.13,228.34h9.08l21.05,27.53v-27.53h9.8v44.69h-8.36l-21.62-28.4v28.4h-9.8v-44.69h-.14Z" fill="#4d5151"/>
        <path d="M415.39,250.83h0c0-12.83,9.95-23.21,23.5-23.21s12.83,2.16,17.59,6.05l-6.2,7.5c-3.46-2.88-6.49-4.47-11.68-4.47s-12.83,6.34-12.83,13.98h0c0,8.36,5.62,14.27,13.55,14.27s6.78-.86,9.23-2.74v-6.34h-9.95v-8.51h19.46v19.46c-4.61,3.89-10.96,7.06-19.17,7.06-13.98,0-23.5-9.8-23.5-22.92h0v-.14Z" fill="#4d5151"/>
      </g>
      <path d="M484.3,254.79h-45.19v-7.06h43.37c5.65-8.03,12.98-19.77,13.3-23.44.87-10.05.24-18.45-.92-20.36l-.21-.09c-14.17-5.94-53.73-19.29-114.76-15.08-1.4.1-2.72-.64-3.37-1.88-.24-.45-25.33-45.96-101.4-52.48-.68-.06-69.65-5.27-124.79,26.64-10.78,6.29-18.76,9.72-25.11,10.8l-3.48.59-1.19-6.96,3.48-.59c5.41-.92,12.85-4.18,22.75-9.95,57.11-33.05,126.02-27.81,128.93-27.57,71.78,6.15,100,44.75,105.88,54.2,61.3-3.86,101.32,9.69,115.79,15.75l.51.21c4.68,1.91,6.34,11.11,4.93,27.36-.63,7.23-13.14,24.95-15.64,28.43-.66.92-1.73,1.47-2.87,1.47ZM484.3,251.26h.01-.01ZM495.2,204.07h.02s-.02,0-.02,0Z" fill="#4d5151"/>
      <g>
        <path d="M103.14,174.77c-23.86,0-46.96-8.29-65.57-23.63C17.48,134.58,4.51,111.29,1.04,85.57L.04,78.08c-.14-1.04.14-2.1.78-2.93s1.58-1.38,2.62-1.52l7.5-1.01c27.19-3.7,54.2,3.45,76.07,20.12,21.87,16.68,35.91,40.84,39.54,68.05.02.13.03.25.03.38l.98,7.25c.29,2.17-1.23,4.17-3.4,4.46l-7.5,1.01c-.68.08-1.28.15-1.88.22-2.1.26-4.28.52-6.47.53-1.72.09-3.44.13-5.15.13ZM8.42,80.95l.48,3.57c6.55,48.59,50.09,84.71,99.09,82.2.07,0,.13,0,.2,0,1.75,0,3.71-.24,5.61-.47.63-.08,1.26-.15,1.88-.22l3.48-.47-.48-3.57c-.02-.13-.03-.26-.03-.39-3.4-25-16.34-47.21-36.45-62.55-20.18-15.39-45.11-21.98-70.2-18.57l-3.57.48Z" fill="#4d5151"/>
        <g>
          <path d="M12.76,83.89c50.02-6.78,95.87,28.4,102.64,78.28-50.02,6.78-95.87-28.4-102.64-78.28" fill="#809e30" fill-rule="evenodd"/>
          <path d="M12.76,83.89c50.02-6.78,95.87,28.4,102.64,78.28L12.76,83.89" fill="#018f3d" fill-rule="evenodd"/>
        </g>
      </g>
      <g>
        <path d="M198.29,327.09c0,9.66-6.78,16-15.42,16s-7.5-1.3-9.66-4.04v3.6h-8.65v-42.67h8.94v14.99c2.31-2.59,5.48-3.75,9.37-3.75,8.65,0,15.42,6.2,15.42,16v-.14ZM189.21,327.09c0-5.33-3.46-8.65-7.93-8.65s-7.93,3.17-7.93,8.65,3.46,8.65,7.93,8.65,7.93-3.17,7.93-8.65Z" fill="#4d5151"/>
        <path d="M234.19,311.66l-13.98,32.87c-3.03,7.5-7.21,9.66-12.83,9.66s-6.63-1.01-8.65-2.88l3.32-6.34c1.44,1.15,3.32,2.02,5.05,2.02s3.89-1.15,5.05-3.89v-.29l-13.26-31.14h9.23l8.65,21.05,8.79-21.05h8.65,0Z" fill="#4d5151"/>
      </g>
      <g>
        <path d="M312.32,334.29h-1.15v-9.37h0l-3.75,9.37h-.86l-3.6-9.37h0v9.37h-1.15v-9.95c0-.29,0-.43.14-.43,0,0,.29-.14.43-.14h1.3s.29,0,.29.14l.29.29s0,.29.14.43l3.03,7.78h0l3.17-7.78c0-.14,0-.29.14-.43l.29-.29s.14,0,.29-.14h1.73v10.38l-.72.14Z" fill="#4d5151"/>
        <path d="M321.55,330.26c0,.29,0,.43-.14.43h-5.33v1.15c0,.29.29.58.43.86.14.29.43.43.72.58.29,0,.72.14,1.15.14h1.01c.29,0,.58,0,.72-.14.14,0,.43,0,.43-.14h.29v.58h0l-.29.14c-.14,0-.29,0-.58.14-.29,0-.58,0-.86.14h-1.01c-.58,0-1.15,0-1.59-.29-.43-.14-.86-.43-1.15-.72s-.58-.72-.72-1.3-.29-1.15-.29-1.73,0-1.15.29-1.73c.14-.58.43-1.01.72-1.3s.72-.58,1.15-.86c.43-.14,1.01-.29,1.44-.29s1.15,0,1.44.29c.43.14.72.43,1.01.72s.43.72.58,1.15c0,.43.14.86.14,1.44v.29l.43.43ZM320.1,329.83c0-.72,0-1.3-.43-1.73-.29-.43-.86-.58-1.44-.58s-.58,0-.86.14c-.29,0-.43.29-.58.58-.14.14-.29.43-.43.72,0,.29-.14.58-.14.86h4.04-.14ZM318.81,323.19v-.14h1.3v.14l-1.44,1.87h-.86v-.14l1.15-1.87-.14.14Z" fill="#4d5151"/>
        <path d="M329.04,334.15v.14c0,.14,0,0,0,0h-1.44l-1.73-3.03-1.73,3.03h-1.44v-.14l2.31-3.6-2.16-3.46v-.14h1.44l1.73,2.74,1.73-2.74h1.15v.14l-2.16,3.46,2.31,3.75v-.14Z" fill="#4d5151"/>
        <path d="M332.21,324.2c0,.29,0,.58-.14.72,0,0-.29.14-.72.14s-.58,0-.72-.14c0,0-.14-.29-.14-.58s0-.58.14-.72c0,0,.29-.14.72-.14s.58,0,.72.14c0,0,.14.29.14.58M332.07,334.29h-.86v-7.5h.86v7.5Z" fill="#4d5151"/>
        <path d="M340,333.14v.43h0v.14s-.14.14-.29.29c-.14,0-.29.14-.58.29-.14,0-.43.14-.72.14h-.72c-.58,0-1.01,0-1.44-.29-.43-.14-.72-.43-1.01-.72s-.43-.72-.58-1.3c-.14-.43-.29-1.01-.29-1.73s0-1.44.29-1.87c.14-.58.43-1.01.72-1.3s.72-.58,1.15-.72.86-.29,1.44-.29h.72c.29,0,.43,0,.58.14.14,0,.29.14.43.29.14,0,.29.14.29.29v.14h0v.86h-.43s-.29-.14-.43-.29c-.14,0-.43-.14-.58-.29h-.86c-.72,0-1.15.29-1.59.72-.29.58-.58,1.3-.58,2.16v1.3c0,.43.29.72.43.86.14.29.43.43.72.58.29,0,.58.14.86.14s.58,0,.86-.14c.29,0,.43-.14.58-.29.14,0,.29-.29.43-.29,0,0,.14-.14.29-.14s0,0,0,0h0v.43" fill="#4d5151"/>
        <path d="M348.65,330.4c0,.58,0,1.15-.29,1.73-.14.58-.43,1.01-.72,1.3-.29.43-.72.72-1.15.86s-1.01.29-1.73.29-1.15,0-1.59-.29c-.43-.14-.86-.43-1.15-.86-.29-.29-.58-.72-.72-1.3-.14-.43-.29-1.01-.29-1.73s0-1.15.29-1.73c.14-.58.43-1.01.72-1.3.29-.43.72-.72,1.15-.86s1.01-.29,1.73-.29,1.15,0,1.59.29c.43.14.86.43,1.15.86.29.29.58.72.72,1.3.14.43.29,1.01.29,1.73M347.21,330.55v-1.15c0-.43-.14-.72-.43-1.01-.14-.29-.43-.43-.72-.58-.29-.14-.72-.29-1.15-.29s-.72,0-1.01.14-.58.29-.72.58-.29.58-.43.86v2.31c0,.43.14.72.43,1.01.14.29.43.43.72.58.29.14.72.29,1.15.29s.72,0,1.01-.14.58-.29.72-.58.29-.58.43-.86v-1.15" fill="#4d5151"/>
        <path d="M287.67,349.43c-.43,1.59-2.16,2.88-3.89,2.88h-43.25c-1.73,0-2.74-1.3-2.16-2.88l11.68-40.65c.43-1.59,2.16-2.88,3.89-2.88h43.25c1.73,0,2.74,1.3,2.16,2.88l-11.68,40.65Z" fill="#eb2226"/>
        <path d="M289.25,329.11c0,11.1-9.08,20.04-20.33,20.04s-20.33-8.94-20.33-20.04,9.08-20.04,20.33-20.04,20.33,8.94,20.33,20.04" fill="#fff"/>
        <polygon points="257.25 317.57 267.63 317.57 266.91 320.89 263.88 320.89 259.27 340.78 254.8 340.78 259.41 320.89 256.53 320.89 257.25 317.57"/>
        <polygon points="268.78 317.57 273.11 317.57 267.63 340.78 263.31 340.78 268.78 317.57"/>
        <path d="M274.69,317.57h6.34s1.73.29,2.45.86c.86.58-.86-.58,0,0,.86.72,1.3,1.01,1.15,2.16,0,1.15-1.73,7.21-1.73,7.21,0,0-.43,1.73-1.15,2.45,0,0-1.15.86-1.73,1.01-1.44.29-1.59.43-2.74.43h-1.15l-2.16,8.94h-4.61l5.33-23.07Z"/>
        <path d="M278.59,320.74l-1.87,7.93s1.3,0,1.59-.43c.29-.43,1.59-6.92,1.59-6.92,0,0,0-.43-.72-.43h-.58v-.14Z" fill="#fff"/>
      </g>
    </g>
  </g>
</svg>